<svg width="62" height="62" viewBox="0 0 62 62" fill="none" xmlns="http://www.w3.org/2000/svg">
<circle cx="31" cy="31" r="31" fill="#DFEED7"/>
<path d="M18.9428 16.2336C15.9159 27.921 19.779 35.9465 30.8886 40.1197C33.9851 29.6388 29.8844 21.7185 18.9428 16.2336Z" fill="#94C679"/>
<path d="M52.2118 31.9201C43.087 29.3999 36.7389 32.3272 33.311 40.982C41.4903 43.5406 47.7587 40.4268 52.2118 31.9201Z" fill="#94C679"/>
<path d="M41.199 17.9026C35.3417 20.7446 33.3977 25.1369 35.569 31.1601C40.9558 28.7676 42.7737 24.3145 41.199 17.9026Z" fill="#FDC04D"/>
<path d="M10.7588 33.9168C12.877 39.8558 16.9005 42.1921 22.9273 40.7374C21.1917 35.2995 17.0967 33.0791 10.7588 33.9168Z" fill="#94C679"/>
</svg>
