<svg width="86" height="108" viewBox="0 0 86 108" fill="none" xmlns="http://www.w3.org/2000/svg">
<g clip-path="url(#clip0_50_338)">
<path d="M18.1747 0C12.0052 23.8282 19.8786 40.1906 42.5275 48.6969C48.8444 27.3313 40.4811 11.1814 18.1747 0Z" fill="#A0D083"/>
<path d="M86 31.979C67.3961 26.8414 54.4545 32.8071 47.4656 50.4528C64.1401 55.6685 76.9213 49.3212 86 31.979Z" fill="#A0D083"/>
<path d="M63.5506 3.40341C51.6104 9.19571 47.6477 18.153 52.0743 30.4312C63.0563 25.5537 66.7632 16.4751 63.5506 3.40341Z" fill="#FABA55"/>
<path d="M1.49146 36.0501C5.80966 48.1593 14.0125 52.9197 26.2995 49.9542C22.7617 38.8682 14.4114 34.3419 1.49146 36.0501Z" fill="#A0D083"/>
<path d="M1.49146 80.9794V62.1632H9.23475C10.8996 62.1632 12.3303 62.432 13.5226 62.9696C14.7149 63.5072 15.634 64.2789 16.2757 65.2804C16.9217 66.2863 17.2425 67.4742 17.2425 68.8572C17.2425 70.2403 16.9217 71.4282 16.2757 72.4341C15.6297 73.4399 14.7106 74.2073 13.5226 74.7449C12.3303 75.2825 10.8996 75.5513 9.23475 75.5513H3.42511L4.98591 73.9125V80.9838H1.49146V80.9794ZM4.98591 74.2854L3.42511 72.5901H9.07C10.6091 72.5901 11.771 72.265 12.5514 71.6103C13.3318 70.9556 13.722 70.0365 13.722 68.8572C13.722 67.678 13.3318 66.7328 12.5514 66.0868C11.771 65.4408 10.6135 65.12 9.07 65.12H3.42511L4.98591 63.3988V74.2854Z" fill="#A0D083"/>
<path d="M23.5334 81.1702C22.4581 81.1702 21.5173 80.9881 20.7109 80.6196C19.9045 80.2511 19.2802 79.7438 18.8423 79.0892C18.4044 78.4345 18.1833 77.6975 18.1833 76.8694C18.1833 76.0413 18.3741 75.3389 18.7599 74.6929C19.1458 74.0469 19.7788 73.5353 20.6546 73.1625C21.5303 72.7853 22.6966 72.5988 24.149 72.5988H28.3155V74.8317H24.3918C23.2429 74.8317 22.4755 75.0137 22.081 75.3823C21.6864 75.7508 21.4913 76.2017 21.4913 76.7393C21.4913 77.3506 21.7341 77.8319 22.2154 78.1917C22.7009 78.5516 23.3729 78.7293 24.2314 78.7293C25.0898 78.7293 25.7965 78.5429 26.4469 78.1657C27.1015 77.7885 27.5698 77.2336 27.8559 76.5008L28.4195 78.5169C28.0987 79.358 27.5177 80.0126 26.6853 80.4809C25.8529 80.9491 24.7993 81.1789 23.5247 81.1789L23.5334 81.1702ZM28.0467 80.9795V78.0746L27.8602 77.4547V72.3734C27.8602 71.3892 27.5654 70.6218 26.9715 70.0756C26.3818 69.5293 25.4844 69.2561 24.2834 69.2561C23.477 69.2561 22.6836 69.3819 21.9032 69.6333C21.1228 69.8848 20.4638 70.236 19.9262 70.6825L18.6082 68.2373C19.3799 67.6476 20.299 67.2011 21.3612 66.9063C22.4278 66.6115 23.5334 66.464 24.6823 66.464C26.759 66.464 28.3675 66.9626 29.5077 67.9555C30.6437 68.9483 31.216 70.4874 31.216 72.5642V80.9795H28.0423H28.0467Z" fill="#A0D083"/>
<path d="M34.446 80.9795V66.6244H37.6456V70.5741L37.2684 69.4165C37.6976 68.4497 38.374 67.7127 39.2975 67.2141C40.2209 66.7112 41.3699 66.4597 42.7529 66.4597V69.6593C42.6098 69.6246 42.4754 69.603 42.3497 69.59C42.224 69.5813 42.0982 69.577 41.9725 69.577C40.6978 69.577 39.6877 69.9498 38.9333 70.6912C38.1789 71.4369 37.806 72.5425 37.806 74.0122V80.9751H34.446V80.9795Z" fill="#A0D083"/>
<path d="M51.1379 81.1702C49.5424 81.1702 48.1507 80.8537 46.9584 80.2164C45.7662 79.5791 44.8427 78.7076 44.188 77.5977C43.5334 76.4878 43.2082 75.2219 43.2082 73.8085C43.2082 72.3951 43.5247 71.1074 44.162 70.0062C44.7993 68.905 45.6751 68.0379 46.798 67.4135C47.9166 66.7849 49.1956 66.4727 50.6263 66.4727C52.057 66.4727 53.271 66.7762 54.3636 67.3875C55.4561 67.9988 56.3146 68.8573 56.9432 69.9672C57.5719 71.0771 57.884 72.3864 57.884 73.8908C57.884 74.0339 57.8797 74.1943 57.871 74.3764C57.8624 74.5542 57.8493 74.7276 57.832 74.888H45.8702V72.6552H56.0588L54.7408 73.3532C54.7581 72.5295 54.589 71.8054 54.2292 71.1768C53.8693 70.5481 53.3837 70.0582 52.7637 69.6984C52.1438 69.3385 51.4327 69.1608 50.6263 69.1608C49.8199 69.1608 49.0829 69.3385 48.4629 69.6984C47.8429 70.0582 47.3616 70.5525 47.0105 71.1898C46.6593 71.8271 46.4859 72.5728 46.4859 73.4356V73.9732C46.4859 74.8317 46.681 75.5947 47.0755 76.2581C47.47 76.9214 48.025 77.433 48.7404 77.7885C49.4557 78.1484 50.2795 78.3261 51.2116 78.3261C52.018 78.3261 52.7421 78.2004 53.3881 77.9489C54.0341 77.6975 54.6064 77.3029 55.1093 76.7653L56.9085 78.8334C56.2625 79.5878 55.4518 80.1644 54.4763 80.5676C53.5008 80.9708 52.3822 81.1702 51.1292 81.1702H51.1379Z" fill="#A0D083"/>
<path d="M68.1809 66.464C69.3255 66.464 70.353 66.6895 71.2592 67.136C72.1653 67.5826 72.8763 68.2676 73.3966 69.1911C73.9169 70.1146 74.177 71.3025 74.177 72.7506V80.9751H70.8169V73.1798C70.8169 71.9095 70.5178 70.96 69.9151 70.3313C69.3125 69.7027 68.4757 69.3905 67.4005 69.3905C66.6115 69.3905 65.9134 69.5509 65.3021 69.8761C64.6908 70.1969 64.2226 70.6782 63.8931 71.3155C63.5592 71.9528 63.3945 72.7549 63.3945 73.7217V80.9795H60.0344V66.6244H63.2341V70.4961L62.6704 69.3125C63.1734 68.3977 63.9017 67.6953 64.8599 67.2011C65.8181 66.7068 66.9236 66.4597 68.1809 66.4597V66.464Z" fill="#A0D083"/>
<path d="M75.4647 69.4209V66.7328H85.0332V69.4209H75.4647ZM82.7744 81.1702C81.1963 81.1702 79.978 80.7627 79.1195 79.9476C78.2611 79.1325 77.8275 77.9272 77.8275 76.3317V63.4551H81.1876V76.2494C81.1876 76.93 81.361 77.459 81.7122 77.8362C82.0634 78.2134 82.549 78.3998 83.1776 78.3998C83.932 78.3998 84.5563 78.2047 85.0592 77.8102L86.0001 80.2034C85.6055 80.5242 85.1199 80.767 84.5476 80.9274C83.9753 81.0878 83.3814 81.1702 82.7744 81.1702Z" fill="#A0D083"/>
<path d="M21.6387 90.1014C22.4365 88.6317 22.7877 87.0492 22.688 85.354C22.6056 83.9363 22.198 82.6833 21.4653 81.5908C20.7326 80.5025 19.6921 79.6658 18.3481 79.0805C17.004 78.4952 15.3912 78.2567 13.5139 78.3651C10.8562 78.5168 8.46734 79.3623 6.33859 80.8927C4.20983 82.4275 2.57533 84.643 1.43074 87.5435C0.286156 90.4439 -0.173413 93.9211 0.0607071 97.9748C0.182103 100.13 0.598315 101.933 1.30067 103.373C2.00303 104.816 2.89182 105.866 3.95837 106.525C5.02925 107.184 6.17383 107.478 7.39212 107.409C9.60759 107.283 10.8866 105.818 11.2291 103.013L12.1049 95.7203C14.4114 95.4298 16.3797 94.7838 18.0056 93.791C19.6314 92.7982 20.8453 91.5669 21.6431 90.0971L21.6387 90.1014ZM12.4647 92.6074L13.1194 86.7371C13.1454 86.5333 13.1541 86.2731 13.1367 85.9567C13.1064 85.419 12.9373 85.0332 12.6338 84.7991C12.3303 84.5649 11.8491 84.4696 11.1901 84.5042C10.6091 84.5389 10.1149 84.7124 9.70297 85.0245C9.2911 85.341 9.04397 85.8396 8.96159 86.5246C8.63209 89.1693 8.38063 91.2764 8.21154 92.8502C7.95141 92.8458 7.57855 92.8155 7.09297 92.7635C6.99325 92.7505 6.84151 92.7461 6.64207 92.7635C6.20418 92.7895 5.86601 92.9369 5.63189 93.21C5.39777 93.4832 5.29372 93.843 5.3154 94.2809C5.34141 94.7015 5.4498 95.0396 5.6449 95.2998C5.84 95.5599 6.23887 95.7203 6.84585 95.7853C6.74613 95.7723 7.08864 95.8027 7.87337 95.8764L7.21003 101.595C7.02794 102.987 6.68977 103.698 6.19118 103.728C5.83133 103.75 5.44113 103.507 5.02058 103C4.60003 102.492 4.24018 101.768 3.93235 100.823C3.62887 99.8781 3.4381 98.7856 3.36873 97.5499C3.19965 94.5931 3.46412 91.9397 4.16214 89.5855C4.86016 87.2313 5.93538 85.3627 7.38779 83.9753C8.8402 82.5879 10.5961 81.8379 12.6555 81.7208C14.4721 81.6168 15.8378 81.9549 16.7569 82.7353C17.6717 83.5157 18.1703 84.5649 18.244 85.8829C18.4565 89.6159 16.5315 91.8617 12.4691 92.6161L12.4647 92.6074Z" fill="#FABA55"/>
<path d="M81.0575 102.727C80.8364 102.727 80.6152 102.826 80.3985 103.026C80.0386 103.347 79.6441 103.607 79.2149 103.806C78.7856 104.006 78.3998 104.105 78.0616 104.105C77.4416 104.105 76.9517 103.923 76.5919 103.563C76.232 103.203 75.9805 102.614 75.8418 101.794C78.1006 98.7335 79.8869 95.6336 81.1962 92.4947C82.5055 89.3557 83.1602 86.594 83.1602 84.2138C83.1602 82.5533 82.8827 81.2786 82.3365 80.3898C81.7858 79.501 81.0314 79.0545 80.069 79.0545C78.3694 79.0545 76.904 80.173 75.6727 82.4145C74.4414 84.656 73.5136 87.3354 72.8806 90.457C72.252 93.5786 71.9355 96.3577 71.9355 98.7986C71.9355 99.7481 71.9962 100.633 72.1176 101.448C71.3805 102.31 70.7779 102.956 70.314 103.373C69.772 103.862 69.3125 104.11 68.9353 104.11C68.6968 104.11 68.5017 104.019 68.35 103.841C68.1982 103.659 68.1245 103.42 68.1245 103.121C68.1245 102.219 68.3543 100.619 68.8139 98.3217C69.113 96.7435 69.2648 95.742 69.2648 95.3215C69.2648 94.6234 68.7748 94.2723 67.795 94.2723C67.3354 94.2723 66.8932 94.3113 66.477 94.3936C66.3773 93.9558 66.2516 93.6479 66.0998 93.4788C65.9481 93.3098 65.6533 93.2231 65.2154 93.2231C63.8367 93.2231 62.5317 93.6566 61.3004 94.528C60.0691 95.3995 59.0849 96.5484 58.3435 97.9792C57.6455 99.3318 57.2813 100.758 57.2423 102.263C56.8131 102.696 56.4229 103.056 56.063 103.338C55.404 103.858 54.641 104.118 53.7825 104.118C52.7203 104.118 51.9486 103.698 51.4587 102.857C50.9687 102.016 50.7216 100.559 50.7216 98.4777C50.7216 97.9185 50.7433 97.1381 50.7823 96.1365H54.4415C56.7003 96.1365 57.8319 95.4472 57.8319 94.0641C57.8319 93.6826 57.7626 93.4225 57.6238 93.2837C57.4851 93.145 57.2553 93.0756 56.9345 93.0756H53.5744C56.1757 90.7735 57.4764 88.0768 57.4764 84.9725C57.4764 83.8539 57.2379 82.9218 56.7567 82.1804C56.2755 81.439 55.6164 81.0705 54.7754 81.0705C53.6351 81.0705 52.5686 81.6124 51.5801 82.692C50.5915 83.7715 49.7461 85.224 49.0438 87.0449C48.3414 88.8658 47.8255 90.8775 47.483 93.0756H45.7747C44.873 93.0756 44.4264 93.6349 44.4264 94.7578C44.4264 95.2391 44.5304 95.5859 44.7429 95.807C44.951 96.0281 45.3585 96.1365 45.9568 96.1365H46.347C46.1649 96.3446 45.9352 96.5528 45.6447 96.7739C44.4437 97.732 43.5073 97.8491 42.6965 97.8664V97.6193C42.9176 96.5614 43.1691 95.6206 43.1691 95.2391C43.1691 94.5974 43.013 94.1118 42.7052 93.7823C42.393 93.4528 41.9508 93.2881 41.3698 93.2881C40.7282 93.2881 40.0215 93.5179 39.2411 93.9774C38.4607 94.437 37.6586 95.2087 36.8392 96.2883C36.0198 97.3678 35.2784 98.7682 34.6194 100.489C34.6974 99.6093 34.8015 98.8679 34.9185 98.2696C35.0399 97.6713 35.2003 96.969 35.3998 96.1712C35.6989 95.0527 35.8507 94.3329 35.8507 94.0121C35.8507 93.7303 35.7726 93.5439 35.6122 93.4398C35.4518 93.3401 35.17 93.2881 34.7711 93.2881C34.0297 93.2881 33.4574 93.4225 33.0456 93.6913C32.6337 93.9601 32.3389 94.385 32.1611 94.9659C31.8143 96.0672 31.5498 97.1944 31.3677 98.352C30.4746 98.5514 29.6768 98.6728 28.9832 98.7162C28.8227 97.1771 28.2765 95.8807 27.3487 94.8315C26.4165 93.7823 25.1939 93.2577 23.6721 93.2577C22.4321 93.2577 21.3006 93.5916 20.2817 94.2636C19.2628 94.9356 18.4608 95.8634 17.8798 97.0557C17.2988 98.248 17.0084 99.6006 17.0084 101.122C17.0084 102.241 17.2295 103.282 17.6674 104.244C18.1053 105.202 18.7513 105.974 19.601 106.555C20.4508 107.136 21.4783 107.426 22.6749 107.426C24.097 107.426 25.363 106.923 26.4859 105.909C27.6045 104.899 28.3545 103.555 28.736 101.872C29.5511 101.838 30.3228 101.742 31.0599 101.591C31.0512 101.855 31.0469 102.115 31.0469 102.38C31.0469 104.14 31.203 105.419 31.5108 106.221C31.8229 107.023 32.3562 107.422 33.1149 107.422C33.7566 107.422 34.2162 107.262 34.4936 106.941C34.7755 106.62 35.0226 105.983 35.2437 105.02C35.5428 103.802 35.933 102.64 36.4143 101.539C36.8955 100.437 37.3724 99.553 37.8537 98.8853C38.3349 98.2133 38.7121 97.8794 38.9939 97.8794C39.0937 97.8794 39.1804 97.9184 39.2497 98.0008C39.3191 98.0789 39.3538 98.2003 39.3538 98.3607C39.3538 98.4821 39.3321 98.7032 39.2931 99.0197C39.2541 99.4576 39.2324 99.8694 39.2324 100.251C39.2324 100.932 39.4275 101.474 39.8177 101.872C40.2079 102.271 40.6805 102.471 41.2441 102.471C41.7037 102.471 42.1372 102.354 42.5448 102.137C43.078 101.998 43.8714 101.686 44.7992 100.992C45.7314 100.407 46.4554 99.7741 47.0407 99.1324C47.1188 104.656 49.1521 107.426 53.1539 107.426C54.4762 107.426 55.6425 107.088 56.6657 106.407C57.0949 106.121 57.5111 105.792 57.91 105.436C58.0357 105.662 58.1788 105.879 58.3435 106.078C59.0849 106.98 60.0734 107.426 61.3134 107.426C62.8915 107.426 64.2052 106.585 65.2457 104.907C65.5275 105.688 65.9394 106.303 66.49 106.754C67.0406 107.205 67.6476 107.431 68.3066 107.431C69.1651 107.431 70.0582 107.079 70.9773 106.381C71.6753 105.848 72.3473 105.224 72.989 104.508C73.0757 104.695 73.1624 104.873 73.2578 105.046C74.1379 106.637 75.5296 107.431 77.4286 107.431C78.751 107.431 79.9302 107.001 80.9708 106.139C81.5691 105.64 81.8726 104.968 81.8726 104.127C81.8726 103.745 81.7989 103.42 81.6471 103.151C81.4954 102.883 81.3003 102.748 81.0618 102.748L81.0575 102.727ZM51.9052 88.1895C52.2347 86.8585 52.5859 85.8179 52.9544 85.0679C53.3229 84.3178 53.6611 83.9406 53.9603 83.9406C54.3982 83.9406 54.6193 84.5303 54.6193 85.7095C54.6193 86.7501 54.3245 87.9033 53.7348 89.1736C53.1452 90.444 52.2607 91.5885 51.0815 92.6074C51.3026 90.9859 51.5757 89.5118 51.9052 88.1808V88.1895ZM24.5696 103.446C24.1013 103.967 23.5464 104.227 22.9047 104.227C22.3237 104.227 21.8208 103.936 21.3916 103.355C20.9624 102.774 20.7456 101.933 20.7456 100.836C20.7456 99.4359 21.0101 98.352 21.539 97.5803C22.068 96.8086 22.7356 96.4227 23.5334 96.4227H23.6851C23.6244 96.7435 23.5941 97.0643 23.5941 97.3808C23.5941 98.1396 23.7588 98.8636 24.0883 99.5399C24.4178 100.221 24.8947 100.771 25.5147 101.192C25.3543 102.172 25.0378 102.922 24.5696 103.442V103.446ZM64.5217 101.526C64.3396 102.384 64.0534 103.078 63.6502 103.598C63.2514 104.118 62.8308 104.378 62.3886 104.378C61.9464 104.378 61.6038 104.227 61.3524 103.928C61.1009 103.628 60.9752 103.169 60.9752 102.549C60.9752 101.43 61.1833 100.368 61.6038 99.3665C62.0244 98.365 62.588 97.5629 63.299 96.9516C64.0101 96.3403 64.7861 96.0282 65.6229 96.0065L64.513 101.526H64.5217ZM76.3144 90.6954C76.7523 88.2328 77.2639 86.1734 77.8448 84.5129C78.4258 82.8524 78.946 82.0243 79.4056 82.0243C79.9649 82.0243 80.2467 82.783 80.2467 84.3048C80.2467 86.2471 79.8262 88.3889 78.9851 90.7431C78.144 93.093 77.0124 95.4385 75.5947 97.7797C75.6337 95.5209 75.8765 93.158 76.3144 90.6998V90.6954Z" fill="#FABA55"/>
</g>
<defs>
<clipPath id="clip0_50_338">
<rect width="86" height="107.426" fill="white"/>
</clipPath>
</defs>
</svg>
